<svg width="80" height="53" viewBox="0 0 80 53" fill="none" xmlns="http://www.w3.org/2000/svg">
<path d="M36.5972 23.5628L34.4153 22.7761L21.9079 18.2987V23.5953C21.9079 24.8201 22.6704 25.9069 23.8222 26.3206L25.3552 26.8722C26.7746 27.3832 27.7317 28.7296 27.7317 30.2383L27.7885 47.6691C27.7966 50.5404 30.1001 52.8683 33.0039 52.8683C34.7316 52.8683 36.224 52.2762 37.2704 51.0838C38.7223 49.7293 38.8845 47.5149 38.8439 46.2739C38.8439 46.2172 38.8439 46.1604 38.8439 46.0955C38.8439 46.1361 38.8439 46.1847 38.8439 46.2253C38.8277 45.7062 38.7709 45.3655 38.7709 45.3655C38.7709 45.3655 37.7084 49.6644 34.4071 49.8023H34.3909C33.5474 49.8023 32.7687 49.2426 32.4767 48.4477C32.3307 48.0503 32.2496 47.6042 32.2496 47.1337V40.1095C32.2496 38.9983 33.1499 38.0898 34.2693 38.0898H37.6354C38.3086 38.0898 38.852 37.5464 38.852 36.8732V26.7667C38.852 25.3311 37.9517 24.0414 36.5972 23.5628ZM34.4153 32.3066C34.4153 33.4989 33.45 34.4723 32.2496 34.4723V29.3461L32.9796 29.6056C33.8394 29.9138 34.4153 30.7249 34.4153 31.6415V32.3147V32.3066Z" fill="#FFAD00"/>
<path d="M2.993 4.55852L0 8.01086e-05C2.41711 10.7392 8.28955 20.067 20.6671 25.1851V17.8851L17.0901 16.3602C11.3312 13.9025 6.424 9.7983 2.993 4.55852Z" fill="#FFAD00"/>
<path d="M43.2724 23.5626C41.9179 24.0493 41.0094 25.3308 41.0094 26.7746V36.8729C41.0094 37.5462 41.5529 38.0896 42.2261 38.0896H45.4543V31.6332C45.4543 30.7247 46.0302 29.9055 46.89 29.5973L47.62 29.3377V47.1335C47.62 47.604 47.5389 48.0501 47.3929 48.4475C47.1009 49.2424 46.3303 49.794 45.4787 49.8021H45.4624C42.1612 49.6642 41.0987 45.3653 41.0987 45.3653C41.0987 45.3653 41.0419 45.7384 41.0257 46.3062C40.9851 47.5553 41.1635 49.7453 42.6073 51.0836C43.6537 52.2678 45.138 52.8599 46.8657 52.8599C49.7613 52.8599 52.073 50.5321 52.0811 47.6607L52.1379 30.2299C52.1379 28.7132 53.095 27.3667 54.5144 26.8638L56.0474 26.3123C57.1992 25.8986 57.9617 24.8117 57.9617 23.5869V18.2904L45.4543 22.7677L43.2724 23.5545V23.5626Z" fill="#FFAD00"/>
<path d="M76.8773 4.55844C73.4463 9.79822 68.5391 13.9024 62.7802 16.3601L59.2032 17.885V25.185C71.5807 20.0669 77.4532 10.7391 79.8703 0L76.8773 4.55844Z" fill="#FFAD00"/>
</svg>
