<svg width="72" height="61" viewBox="0 0 72 61" fill="none" xmlns="http://www.w3.org/2000/svg">
<path d="M24.7106 5.51545C30.1172 -1.80515 40.9604 -1.84717 46.4089 5.44221C51.0318 11.6272 56.1883 18.698 59.8581 24.2244C62.8119 28.6725 66.1664 34.1216 69.2673 39.3035C74.3586 47.8117 68.8881 58.548 59.0056 59.3514C51.2382 59.9828 42.5876 60.5154 35.5124 60.5155C28.4956 60.5155 19.9292 59.9916 12.2116 59.367C2.27802 58.5631 -3.18368 47.7329 1.98311 39.2108C5.10476 34.0619 8.46739 28.6541 11.4128 24.2244C15.0806 18.7083 20.1604 11.6766 24.7106 5.51545ZM21.612 34.7567C20.6603 34.7567 19.7702 35.0032 18.9421 35.4969C18.1263 35.9907 17.4954 36.6637 17.0505 37.5155L12.3415 46.4588C12.2674 46.6069 12.2364 46.7551 12.2487 46.9031C12.2611 47.0512 12.3045 47.1808 12.3786 47.2918C12.4404 47.4152 12.5396 47.5137 12.6755 47.5877C12.8114 47.6741 12.9539 47.7176 13.1022 47.7176H15.3083C16.0992 47.7176 16.8346 47.5074 17.5144 47.0877C18.2064 46.6804 18.7383 46.1252 19.1091 45.4217L19.7575 44.2C19.9182 43.8914 20.1722 43.7371 20.5183 43.7371H27.7487C28.7126 43.7371 29.6021 43.4895 30.4177 42.9959C31.2334 42.5021 31.8643 41.8291 32.3093 40.9774L34.2556 37.2742C34.4285 36.867 34.4781 36.4785 34.404 36.1082C34.3422 35.738 34.1509 35.4231 33.8298 35.1639C33.5209 34.8924 33.1561 34.7568 32.736 34.7567H21.612ZM42.655 34.7567C41.7033 34.7567 40.8132 35.0031 39.9851 35.4969C39.1694 35.9907 38.5394 36.6637 38.0944 37.5155L33.3854 46.4588C33.3113 46.6069 33.2803 46.755 33.2927 46.9031C33.305 47.0511 33.3475 47.1808 33.4216 47.2918C33.4833 47.4152 33.5827 47.5137 33.7185 47.5877C33.8544 47.6741 33.9969 47.7176 34.1452 47.7176H36.3513C37.1423 47.7176 37.8775 47.5074 38.5573 47.0877C39.2495 46.6804 39.7812 46.1253 40.1521 45.4217L40.8005 44.2C40.9612 43.8914 41.2151 43.7371 41.5612 43.7371H48.7917C49.7558 43.7371 50.6459 43.4897 51.4616 42.9959C52.2773 42.5022 52.9073 41.8291 53.3522 40.9774L55.2995 37.2742C55.4724 36.8671 55.522 36.4784 55.4479 36.1082C55.3862 35.738 55.194 35.4231 54.8728 35.1639C54.5638 34.8923 54.1992 34.7567 53.779 34.7567H42.655ZM27.5075 35.5711C27.8288 35.5712 28.0695 35.7069 28.2302 35.9783C28.4032 36.2499 28.4156 36.5337 28.2673 36.8299L26.2653 40.6258C26.0181 41.0949 25.697 41.5028 25.3015 41.8485C24.9184 42.194 24.4794 42.4592 23.9851 42.6444C23.503 42.8295 22.996 42.9217 22.4646 42.9217H21.8151C21.5311 42.9216 21.3025 42.8108 21.1296 42.5887C20.9566 42.3543 20.9134 42.1013 20.9997 41.8299L23.28 37.4783C23.6878 36.8859 24.2073 36.423 24.8376 36.0897C25.4679 35.7441 26.1414 35.5712 26.8581 35.5711H27.5075ZM48.5505 35.5711C48.8718 35.5711 49.1134 35.7068 49.2741 35.9783C49.447 36.2498 49.4594 36.5338 49.3112 36.8299L47.3083 40.6258C47.0611 41.0949 46.74 41.5028 46.3444 41.8485C45.9613 42.194 45.5223 42.4592 45.028 42.6444C44.546 42.8295 44.039 42.9217 43.5075 42.9217H42.8591C42.5748 42.9217 42.3456 42.8109 42.1726 42.5887C41.9997 42.3543 41.9564 42.1012 42.0427 41.8299L44.3239 37.4783C44.7317 36.8859 45.2504 36.423 45.8806 36.0897C46.5109 35.744 47.1852 35.5711 47.9021 35.5711H48.5505ZM33.2399 17.0438C32.2883 17.0438 31.3981 17.2903 30.57 17.784C29.7544 18.2778 29.1243 18.9509 28.6794 19.8026L23.9704 28.7459C23.8963 28.894 23.8653 29.0422 23.8776 29.1903C23.89 29.3383 23.9334 29.4679 24.0075 29.5789C24.0693 29.7023 24.1676 29.8018 24.3034 29.8758C24.4393 29.9622 24.5819 30.0057 24.7302 30.0057H26.9362C27.7273 30.0057 28.4635 29.7955 29.1433 29.3758C29.8353 28.9685 30.3663 28.4123 30.737 27.7088L31.3864 26.4871C31.5471 26.1786 31.8002 26.0243 32.1462 26.0242H39.3767C40.3407 26.0242 41.2308 25.7768 42.0466 25.283C42.8621 24.7893 43.4923 24.117 43.9372 23.2655L45.8845 19.5623C46.0575 19.155 46.1071 18.7657 46.0329 18.3953C45.9711 18.025 45.7791 17.7102 45.4577 17.451C45.1487 17.1795 44.7841 17.0438 44.364 17.0438H33.2399ZM39.1354 17.8582C39.4568 17.8582 39.6984 17.994 39.8591 18.2655C40.032 18.5369 40.0443 18.8209 39.8962 19.117L37.8933 22.9129C37.6461 23.382 37.3249 23.7899 36.9294 24.1356C36.5463 24.4811 36.1073 24.7463 35.613 24.9315C35.1311 25.1165 34.6247 25.2097 34.0935 25.2098H33.444C33.1598 25.2098 32.9315 25.098 32.7585 24.8758C32.5855 24.6413 32.5421 24.3886 32.6286 24.117L34.9089 19.7655C35.3167 19.173 35.8362 18.71 36.4665 18.3768C37.0968 18.0313 37.7703 17.8582 38.487 17.8582H39.1354Z" fill="#FFAD00"/>
</svg>
