<?xml version="1.0" encoding="UTF-8"?>
<svg id="Calque_2" data-name="Calque 2" xmlns="http://www.w3.org/2000/svg" viewBox="0 0 226.8 47.07">
  <defs>
    <style>
      .cls-1 {
        fill: #fff;
      }
    </style>
  </defs>
  <g id="Calque_1-2" data-name="Calque 1">
    <g>
      <path class="cls-1" d="M47.11,23.53c0,13-10.55,23.53-23.55,23.53S0,36.53,0,23.53,10.55,0,23.55,0s23.55,10.54,23.55,23.53ZM41.17,26.86c-1.63,8.02-8.54,13.87-16.66,14.33l-.02,3.99c11.6-.53,20.73-10.09,20.77-21.53.02-7.05-3.32-13.65-9.17-17.81C29.44,1.13,20.6.52,13.22,4.5,6.67,8.03,2.08,15.01,1.87,22.81c-.13,4.78,1.24,9.41,3.99,13.27l.08-13.01c.32-6.38,3.96-12.11,9.52-15.16,2.29-1.26,4.79-2.07,7.4-2.25,5.48-.37,10.67,2.01,14.17,5.97s5.26,9.7,4.14,15.23ZM17.65,13.01c4.79-2.85,10.81-1.96,14.65,2,3.34,3.44,4.37,8.51,2.44,13.04-1.71,4-5.6,6.95-10.25,7.22v4.05c7.74-.44,14.29-6.54,15.09-14.34.94-9.2-6.32-17.44-15.66-17.47-3.89-.02-7.71,1.66-10.61,4.22-3.21,2.84-5.28,6.84-5.49,11.15l-.11,15.48c1.21,1.21,2.39,2.28,3.85,3.22l.02-17.98c0-4.37,2.27-8.32,6.07-10.58ZM16.95,26.65c.58-7.21,7.19-11.58,13.93-10.48-3.88-3.82-9.99-3.93-13.91-.38-2.08,1.89-3.49,4.47-3.49,7.33l-.04,19.58c1.11.57,2.21,1.06,3.5,1.47v-17.53ZM22.65,29.25c0-2.45,1.39-4.63,3.17-6.07,2.28-1.86,5.17-2.25,7.92-1.32-.19-1.16-.52-2.17-1.04-3.18-2.62-1.03-5.46-1.05-8.05.05-3.27,1.38-5.52,4.31-5.85,7.87v18.11c1.24.27,2.49.42,3.81.5l.05-15.94ZM24.5,33.45c5.07-.47,9.04-4.51,9.34-9.57-2.01-.93-4.3-.93-6.28.32-1.58.99-3.01,2.84-3.02,4.97l-.03,4.28Z"/>
      <path class="cls-1" d="M81.59,26.77l.06,4.09,8.37-20.71h4.38s8.39,20.77,8.39,20.77h-5.1s-1.52-4.15-1.52-4.15h-7.91s-1.55,4.15-1.55,4.15h-16.99s0-20.78,0-20.78h11.88s0,4.16,0,4.16h-7.15s0,4.12,0,4.12h6.84s0,4.16,0,4.16h-6.83s0,4.18,0,4.18h7.13ZM94.54,22.6l-2.34-6.06-2.35,6.1,4.68-.03Z"/>
      <path class="cls-1" d="M166.88,22.95h-4.77s0-3.66,0-3.66h9.61s-.05,4.31-.05,4.31c-.62,5.88-7.62,9.23-13.11,7.04-4.25-1.7-6.71-5.93-6.58-10.43.18-6.29,5.08-11.11,11.45-10.36,2.64.25,4.98,1.4,6.7,3.48l-3.1,3.4c-1.39-2.34-4.29-3.43-6.76-2.11-3.24,1.73-4.22,6.79-1.85,10.17,1.62,2.3,4.6,2.87,6.91,1.24.97-.69,1.59-1.74,1.56-3.08Z"/>
      <path class="cls-1" d="M225.87,24.53c-1.69,3.96-5.45,6.41-9.7,6.4h-6.1s0-20.78,0-20.78h6.1c4.24,0,8,2.48,9.68,6.36.96,2.61.99,5.33.02,8.02ZM221.03,22.95c.53-1.5.56-3,.12-4.46-.84-2.78-3.45-4.41-6.35-4.06v12.25c2.87.28,5.23-1.14,6.23-3.72Z"/>
      <path class="cls-1" d="M63.67,19.92c2.8.35,4.38,2.29,4.46,4.9.07,2.34-1,4.39-3.18,5.4-1.07.47-2.25.71-3.48.71h-8.04s0-20.78,0-20.78h6.68c1.22,0,2.41.26,3.48.71,1.76.75,2.6,2.32,2.69,4.18.1,2.06-.65,3.91-2.62,4.88ZM60.88,17.75c1.06-.74,1.08-2.33.32-3.22-.88-.67-1.9-.76-3.01-.71v4.46c.93-.01,1.9.01,2.69-.54ZM63.14,24.75c-.12-2.45-2.6-2.45-4.95-2.37v4.89c1.12.02,2.2.04,3.22-.19,1.15-.26,1.8-1.12,1.74-2.34Z"/>
      <path class="cls-1" d="M209.65,30.92h-6s-6.35-8.18-6.35-8.18v8.19s-4.75,0-4.75,0V10.15s7.44,0,7.44,0c1.26,0,2.48.25,3.57.76,2.13.98,3.14,2.94,3.21,5.21.09,2.88-1.44,5.37-4.27,6.21l7.16,8.59ZM201.78,16.48c-.05-1.34-.82-2.34-2.06-2.41l-2.43-.13v5.43c1.08.02,2.16.04,3.15-.35s1.39-1.46,1.34-2.54Z"/>
      <path class="cls-1" d="M138.37,30.9l-5.97.05-6.34-8.15-.03,8.14h-4.74s0-20.78,0-20.78h7.47c1.26,0,2.47.26,3.56.76,2.17,1.03,3.17,3.06,3.19,5.38.02,2.78-1.49,5.21-4.27,6.04l7.12,8.56ZM130.49,16.23c-.25-2.25-2.28-2.34-4.45-2.29v5.41c1.04.05,2.23.08,3.25-.39s1.32-1.65,1.2-2.73Z"/>
      <path class="cls-1" d="M114.29,10.16h4.74s0,13.83,0,13.83c-.11,3.24-1.52,5.9-4.67,6.83-2.26.67-4.68.66-6.94-.02-3.2-.96-4.58-3.79-4.62-7.08v-13.57s4.75,0,4.75,0v12.48c.07,1.73.39,3.38,2.03,3.83.85.23,1.77.23,2.62.01,1.68-.43,2.03-2.12,2.1-3.88v-12.44Z"/>
      <rect class="cls-1" x="52.21" y="37.55" width="174.58" height="1.26"/>
      <path class="cls-1" d="M185.62,26.78h-7.92s-1.54,4.15-1.54,4.15h-5.09s8.39-20.77,8.39-20.77h4.38s8.39,20.77,8.39,20.77h-5.08s-1.53-4.14-1.53-4.14ZM183.99,22.6l-2.34-6.06-2.33,6.09,4.67-.03Z"/>
      <polygon class="cls-1" points="150.41 22.6 143.59 22.6 143.56 26.77 150.7 26.77 150.7 30.93 138.82 30.93 138.82 10.15 150.7 10.15 150.71 14.31 143.57 14.32 143.57 18.44 150.41 18.44 150.41 22.6"/>
    </g>
  </g>
</svg>