<svg xmlns="http://www.w3.org/2000/svg" width="24" height="24" fill="none"><path fill="#376131" d="M13.028 2a77.53 77.53 0 0 1 2.189.023l.194.006c.224.008.445.018.712.03 1.064.05 1.79.218 2.427.466.66.254 1.216.597 1.772 1.153a4.908 4.908 0 0 1 1.153 1.772c.247.636.415 1.363.465 2.427.012.267.022.488.03.712l.006.194c.015.493.021 1.064.023 2.19l.001.745v1.31a78.831 78.831 0 0 1-.023 2.188l-.006.194c-.008.224-.018.446-.03.712-.05 1.064-.22 1.79-.466 2.428a4.883 4.883 0 0 1-1.153 1.771 4.915 4.915 0 0 1-1.772 1.154c-.637.246-1.363.415-2.427.465a72.11 72.11 0 0 1-.712.03l-.194.006c-.493.014-1.064.02-2.189.023h-2.055a78.43 78.43 0 0 1-2.189-.022l-.194-.007a63.036 63.036 0 0 1-.712-.03c-1.064-.05-1.79-.219-2.428-.465a4.889 4.889 0 0 1-1.77-1.155 4.904 4.904 0 0 1-1.154-1.771c-.247-.638-.415-1.364-.465-2.428a74.1 74.1 0 0 1-.03-.712l-.005-.194A79.047 79.047 0 0 1 2 13.028v-2.056c.002-1.125.008-1.696.022-2.189l.007-.194c.008-.224.018-.445.03-.712.05-1.065.218-1.79.465-2.427A4.88 4.88 0 0 1 3.68 3.678a4.897 4.897 0 0 1 1.77-1.153c.638-.248 1.363-.415 2.428-.465.266-.012.488-.022.712-.03l.194-.006a79 79 0 0 1 2.188-.023h2.056ZM12 7a5 5 0 1 0 0 10 5 5 0 0 0 0-10Zm0 2a3 3 0 1 1 0 6 3 3 0 0 1 0-6Zm5.25-3.5a1.25 1.25 0 0 0 0 2.499 1.25 1.25 0 0 0 0-2.5Z"/></svg>