<svg xmlns="http://www.w3.org/2000/svg" width="20" height="16" fill="none"><g fill="#376131" clip-path="url(#a)"><path d="M16.893 0H3.107C1.39 0 0 1.113 0 2.485v.008l8.56 6.245c.41.299.92.446 1.44.446s1.03-.147 1.44-.446L20 2.493v-.008C20 1.113 18.609 0 16.893 0"/><path d="M10 11.048c-1.076 0-2.16-.312-3.01-.933L0 5.015v8.5c0 1.372 1.391 2.484 3.107 2.484h13.786C18.61 16 20 14.887 20 13.514V5.016l-6.99 5.099c-.85.62-1.934.934-3.01.933"/></g><defs><clipPath id="a"><path fill="#fff" d="M0 0h20v16H0z"/></clipPath></defs></svg>